<mxfile host="app.diagrams.net" modified="2023-12-18T12:54:37.469Z" agent="Mozilla/5.0 (Windows NT 10.0; Win64; x64; rv:120.0) Gecko/20100101 Firefox/120.0" version="22.1.11" etag="tSA3xIg-908ql5BSeT0j" type="github">
  <diagram name="Page-1" id="WqwNmF3EGkvBF4QxeKBe">
    <mxGraphModel>
      <root>
        <mxCell id="0" />
        <mxCell id="1" parent="0" />
      </root>
    </mxGraphModel>
  </diagram>
</mxfile>
